<svg width="26" height="24" viewBox="0 0 26 24" fill="none" xmlns="http://www.w3.org/2000/svg">
<path d="M10.127 17H6.58992C5.27905 17 4.62363 17 4.48572 16.9023C4.33079 16.7925 4.29294 16.7277 4.27616 16.5436C4.26123 16.3797 4.66294 15.7486 5.46638 14.4866C6.29591 13.1835 7.00028 11.2862 7.00028 8.6C7.00028 7.11479 7.65876 5.69041 8.83086 4.6402C10.003 3.59 11.5927 3 13.2503 3C14.9079 3 16.4976 3.59 17.6696 4.6402C18.8418 5.69041 19.5003 7.11479 19.5003 8.6C19.5003 11.2862 20.2046 13.1835 21.0342 14.4866C21.8376 15.7486 22.2393 16.3797 22.2244 16.5436C22.2077 16.7277 22.1698 16.7925 22.0149 16.9023C21.8769 17 21.2215 17 19.9107 17H16.3753M10.127 17L10.1253 18C10.1253 19.6569 11.5244 21 13.2503 21C14.9762 21 16.3753 19.6569 16.3753 18V17M10.127 17H16.3753" stroke="white" stroke-width="2" stroke-linecap="round" stroke-linejoin="round"/>
<circle cx="19.5" cy="4.5" r="3.5" fill="#FA0606"/>
</svg>
