<svg width="17" height="17" viewBox="0 0 17 17" fill="none" xmlns="http://www.w3.org/2000/svg">
<path d="M6.7526 15.625H3.74427C2.85752 15.625 2.41414 15.625 2.07545 15.4524C1.77753 15.3007 1.53531 15.0584 1.38351 14.7605C1.21094 14.4218 1.21094 13.9784 1.21094 13.0917V5.49167C1.21094 4.60492 1.21094 4.16154 1.38351 3.82285C1.53531 3.52492 1.77753 3.2827 2.07545 3.13091C2.41414 2.95833 2.85752 2.95833 3.74427 2.95833H12.9276C13.8143 2.95833 14.2578 2.95833 14.5964 3.13091C14.8943 3.2827 15.1366 3.52492 15.2884 3.82285C15.4609 4.16154 15.4609 4.60492 15.4609 5.49167V6.91667M4.3776 1.375V2.95833M12.2943 1.375V2.95833M1.21094 6.125H15.4609M9.52344 9.29175L4.3776 9.29167M6.7526 12.4584L4.3776 12.4583M9.91927 15.625L11.5224 15.3044C11.6621 15.2764 11.732 15.2624 11.7972 15.2368C11.8551 15.2142 11.9101 15.1848 11.961 15.1492C12.0185 15.1092 12.0688 15.0588 12.1697 14.9579L15.4609 11.6667C15.8982 11.2294 15.8982 10.5206 15.4609 10.0833C15.0237 9.6461 14.3148 9.6461 13.8776 10.0833L10.5863 13.3746C10.4855 13.4755 10.4351 13.5258 10.3951 13.5833C10.3595 13.6342 10.3301 13.6892 10.3074 13.7471C10.2819 13.8122 10.2678 13.8821 10.2399 14.0219L9.91927 15.625Z" stroke="white" stroke-linecap="round" stroke-linejoin="round"/>
</svg>
