<svg width="54" height="54" viewBox="0 0 54 54" fill="none" xmlns="http://www.w3.org/2000/svg">
<path d="M27 0C12.09 0 0 12.09 0 27C0 41.91 12.09 54 27 54C41.91 54 54 41.91 54 27C54 12.09 41.91 0 27 0ZM37.38 35.85C37.38 40.26 34.98 45.75 25.2 49.95C26.1 37.44 17.64 38.88 15.6 34.95C15.978 31.65 18.012 28.761 21 27.3C16.344 26.502 12 24.42 8.46 21.3C8.61 22.71 9.3 24.012 10.38 24.93C8.034 24.045 6.006 22.479 4.56 20.43C7.491 10.755 16.209 3.984 26.31 3.54C23.79 7.68 21.81 15.93 26.31 20.25C21.69 21 18.78 15 16.23 17.37C12.84 20.55 17.22 24.9 26.49 26.61C36.36 28.38 37.47 31.35 37.38 35.85ZM41.4 23.85C40.44 20.52 43.26 17.16 46.47 14.43C50.538 20.295 51.48 27.78 48.99 34.47C46.68 28.8 42.48 27.51 41.4 23.76V23.85Z" fill="white"/>
</svg>
