<svg width="48" height="59" viewBox="0 0 48 59" fill="none" xmlns="http://www.w3.org/2000/svg">
<path d="M40 0H8C5.87827 0 3.84344 0.842855 2.34315 2.34315C0.842855 3.84344 0 5.87827 0 8V56C0.000112598 56.5273 0.156571 57.0428 0.449596 57.4812C0.742621 57.9197 1.15905 58.2614 1.64625 58.4631C2.13345 58.6649 2.66954 58.7177 3.18675 58.6149C3.70396 58.512 4.17906 58.2582 4.552 57.8853L10.2533 52.1867L13.7813 57.4773C13.9982 57.8079 14.2858 58.0861 14.6234 58.2918C14.961 58.4975 15.3402 58.6255 15.7333 58.6667C16.1263 58.7084 16.5236 58.661 16.8957 58.528C17.2678 58.3951 17.6051 58.18 17.8827 57.8987L24 51.7707L30.1147 57.8853C30.3938 58.1642 30.7312 58.3776 31.1028 58.5102C31.4743 58.6429 31.8706 58.6914 32.2632 58.6524C32.6558 58.6134 33.0348 58.4877 33.3729 58.2845C33.7111 58.0813 33.9999 57.8057 34.2187 57.4773L37.7467 52.1867L43.448 57.8853C43.8209 58.2582 44.296 58.512 44.8132 58.6149C45.3305 58.7177 45.8665 58.6649 46.3537 58.4631C46.8409 58.2614 47.2574 57.9197 47.5504 57.4812C47.8434 57.0428 47.9999 56.5273 48 56V8C48 5.87827 47.1571 3.84344 45.6569 2.34315C44.1566 0.842855 42.1217 0 40 0ZM42.6667 49.5627L39.2187 46.1147C38.9414 45.8331 38.604 45.6177 38.2319 45.4847C37.8597 45.3518 37.4623 45.3046 37.0693 45.3467C36.6771 45.3856 36.2983 45.511 35.9603 45.7139C35.6223 45.9168 35.3335 46.1921 35.1147 46.52L31.5867 51.8133L25.8853 46.1147C25.3853 45.6147 24.7071 45.3339 24 45.3339C23.2929 45.3339 22.6147 45.6147 22.1147 46.1147L16.4133 51.8133L12.8853 46.52C12.6664 46.1919 12.3774 45.9164 12.0391 45.7135C11.7009 45.5105 11.3218 45.3851 10.9292 45.3464C10.5367 45.3076 10.1404 45.3564 9.76898 45.4892C9.39756 45.6221 9.06024 45.8357 8.78133 46.1147L5.33333 49.5627V8C5.33333 7.29276 5.61429 6.61448 6.11438 6.11438C6.61448 5.61428 7.29276 5.33333 8 5.33333H40C40.7072 5.33333 41.3855 5.61428 41.8856 6.11438C42.3857 6.61448 42.6667 7.29276 42.6667 8V49.5627ZM26.6667 26.6667C26.6667 27.3739 26.3857 28.0522 25.8856 28.5523C25.3855 29.0524 24.7072 29.3333 24 29.3333H13.3333C12.6261 29.3333 11.9478 29.0524 11.4477 28.5523C10.9476 28.0522 10.6667 27.3739 10.6667 26.6667C10.6667 25.9594 10.9476 25.2811 11.4477 24.781C11.9478 24.281 12.6261 24 13.3333 24H24C24.7072 24 25.3855 24.281 25.8856 24.781C26.3857 25.2811 26.6667 25.9594 26.6667 26.6667ZM26.6667 37.3333C26.6667 38.0406 26.3857 38.7189 25.8856 39.219C25.3855 39.719 24.7072 40 24 40H13.3333C12.6261 40 11.9478 39.719 11.4477 39.219C10.9476 38.7189 10.6667 38.0406 10.6667 37.3333C10.6667 36.6261 10.9476 35.9478 11.4477 35.4477C11.9478 34.9476 12.6261 34.6667 13.3333 34.6667H24C24.7072 34.6667 25.3855 34.9476 25.8856 35.4477C26.3857 35.9478 26.6667 36.6261 26.6667 37.3333ZM37.3333 26.6667C37.3333 27.3739 37.0524 28.0522 36.5523 28.5523C36.0522 29.0524 35.3739 29.3333 34.6667 29.3333H32C31.2928 29.3333 30.6145 29.0524 30.1144 28.5523C29.6143 28.0522 29.3333 27.3739 29.3333 26.6667C29.3333 25.9594 29.6143 25.2811 30.1144 24.781C30.6145 24.281 31.2928 24 32 24H34.6667C35.3739 24 36.0522 24.281 36.5523 24.781C37.0524 25.2811 37.3333 25.9594 37.3333 26.6667ZM37.3333 37.3333C37.3333 38.0406 37.0524 38.7189 36.5523 39.219C36.0522 39.719 35.3739 40 34.6667 40H32C31.2928 40 30.6145 39.719 30.1144 39.219C29.6143 38.7189 29.3333 38.0406 29.3333 37.3333C29.3333 36.6261 29.6143 35.9478 30.1144 35.4477C30.6145 34.9476 31.2928 34.6667 32 34.6667H34.6667C35.3739 34.6667 36.0522 34.9476 36.5523 35.4477C37.0524 35.9478 37.3333 36.6261 37.3333 37.3333ZM37.3333 13.3333C37.3333 14.0406 37.0524 14.7189 36.5523 15.219C36.0522 15.719 35.3739 16 34.6667 16H13.3333C12.6261 16 11.9478 15.719 11.4477 15.219C10.9476 14.7189 10.6667 14.0406 10.6667 13.3333C10.6667 12.6261 10.9476 11.9478 11.4477 11.4477C11.9478 10.9476 12.6261 10.6667 13.3333 10.6667H34.6667C35.3739 10.6667 36.0522 10.9476 36.5523 11.4477C37.0524 11.9478 37.3333 12.6261 37.3333 13.3333Z" fill="white"/>
</svg>
