<svg width="17" height="17" viewBox="0 0 17 17" fill="none" xmlns="http://www.w3.org/2000/svg">
<path d="M3.1665 1.83337V15.1667L4.49984 14.5L5.83317 15.1667L7.1665 14.5L8.49984 15.1667L9.83317 14.5L11.1665 15.1667L12.4998 14.5L13.8332 15.1667V1.83337L12.4998 2.50004L11.1665 1.83337L9.83317 2.50004L8.49984 1.83337L7.1665 2.50004L5.83317 1.83337L4.49984 2.50004L3.1665 1.83337Z" stroke="#E3E3E3" stroke-linecap="round" stroke-linejoin="round"/>
<path d="M11.1668 5.83337H7.16683C6.81321 5.83337 6.47407 5.97385 6.22402 6.2239C5.97397 6.47395 5.8335 6.81309 5.8335 7.16671C5.8335 7.52033 5.97397 7.85947 6.22402 8.10952C6.47407 8.35956 6.81321 8.50004 7.16683 8.50004H9.8335C10.1871 8.50004 10.5263 8.64052 10.7763 8.89057C11.0264 9.14061 11.1668 9.47975 11.1668 9.83337C11.1668 10.187 11.0264 10.5261 10.7763 10.7762C10.5263 11.0262 10.1871 11.1667 9.8335 11.1667H5.8335" stroke="#E3E3E3" stroke-linecap="round" stroke-linejoin="round"/>
<path d="M8.5 11.8333V5.16663" stroke="#E3E3E3" stroke-linecap="round" stroke-linejoin="round"/>
</svg>
