<svg width="53" height="51" viewBox="0 0 53 51" fill="none" xmlns="http://www.w3.org/2000/svg">
<path d="M47.85 4.61104C53.73 10.3635 53.73 19.715 47.85 25.4675C43.32 29.922 36.6 30.8955 31.08 28.447L25.47 38.2115L16.5 39.126L12 50.1H3L0 44.2L23.85 21.5145C21.09 15.998 21.99 9.18354 26.64 4.61104C32.49 -1.17096 42 -1.17096 47.85 4.61104ZM40.32 15.7915C42.54 15.7915 44.31 14.0215 44.31 11.8385C44.31 9.68504 42.54 7.91504 40.32 7.91504C38.13 7.91504 36.33 9.68504 36.33 11.8385C36.33 14.0215 38.13 15.7915 40.32 15.7915Z" fill="white"/>
</svg>
