<svg width="60" height="60" viewBox="0 0 60 60" fill="none" xmlns="http://www.w3.org/2000/svg">
<path d="M31.3199 9.05998L36.7799 3.59998L55.8599 22.65L50.3699 28.11C47.2199 26.07 42.9299 26.4 40.1399 29.19L37.8899 31.44C35.1299 34.23 34.7699 38.49 36.8399 41.67L31.3499 47.13L24.1199 39.9L15.7199 48.27C14.4599 49.53 5.57994 56.4 4.31994 55.14C3.05994 53.88 9.89994 44.97 11.1599 43.71L19.5299 35.34L12.2999 28.08L17.7899 22.62C20.9399 24.69 25.2299 24.33 27.9899 21.54L30.2399 19.29C33.0299 16.53 33.3899 12.24 31.3199 9.05998Z" fill="white"/>
</svg>
