<svg width="14" height="15" viewBox="0 0 14 15" fill="none" xmlns="http://www.w3.org/2000/svg">
<path d="M13.2802 3.26533L7.90413 0.214923C7.3993 -0.0716409 6.58085 -0.0716409 6.07602 0.214923L0.699995 3.26533C0.302899 3.49049 0.21829 3.82574 0.446169 4.09792L6.56901 7.52672C6.88544 7.58868 7.23572 7.57872 7.54144 7.49685L13.4573 4.17647C13.7754 3.89267 13.7167 3.51262 13.2802 3.26533ZM3.60658 4.2163C3.16718 4.47189 2.45534 4.47189 2.01594 4.2163C1.57654 3.96072 1.57654 3.54636 2.01594 3.29078C2.45534 3.0352 3.16718 3.0352 3.60658 3.29078C4.04598 3.54636 4.04598 3.96072 3.60658 4.2163ZM7.80147 6.65707C7.36207 6.91266 6.65023 6.91266 6.21083 6.65707C5.77143 6.40149 5.77143 5.98713 6.21083 5.73155C6.65023 5.47597 7.36207 5.47597 7.80147 5.73155C8.24087 5.98713 8.24087 6.40149 7.80147 6.65707ZM6.21083 3.29963C6.65023 3.04405 7.36207 3.04405 7.80147 3.29963C8.24087 3.55521 8.24087 3.96957 7.80147 4.22515C7.36207 4.48074 6.65023 4.48074 6.21083 4.22515C5.77143 3.96957 5.77143 3.55521 6.21083 3.29963ZM7.80147 1.79324C7.36207 2.04882 6.65023 2.04882 6.21083 1.79324C5.77143 1.53765 5.77143 1.1233 6.21083 0.867713C6.65023 0.612129 7.36207 0.612129 7.80147 0.867713C8.24087 1.1233 8.24087 1.53765 7.80147 1.79324ZM11.98 4.22515C11.5406 4.48074 10.8288 4.48074 10.3894 4.22515C9.94996 3.96957 9.94996 3.55521 10.3894 3.29963C10.8288 3.04405 11.5406 3.04405 11.98 3.29963C12.4194 3.55521 12.4194 3.96957 11.98 4.22515ZM13.6496 4.33469L7.38858 7.84869C7.29326 7.9787 7.21147 8.12198 7.14773 8.26913H7.17819V14.8728C7.34458 15.0344 7.61251 15.0487 7.91428 14.8772L13.0856 11.9485C13.5904 11.6625 13.9999 10.9671 13.9999 10.3951V4.95152C13.9999 4.6207 13.8628 4.40384 13.649 4.33524L13.6496 4.33469ZM9.32104 12.4536C9.32217 12.9299 8.96794 13.5175 8.5308 13.7658C8.09365 14.0142 7.7383 13.83 7.73717 13.3537C7.73717 13.3526 7.73717 13.3515 7.73717 13.3504C7.73604 12.8741 8.09027 12.2866 8.52741 12.0382C8.96456 11.7898 9.31991 11.974 9.32104 12.4503C9.32104 12.4514 9.32104 12.4525 9.32104 12.4536ZM9.32104 8.21768C9.32217 8.694 8.96794 9.28151 8.5308 9.5299C8.09365 9.77829 7.7383 9.59407 7.73717 9.11776C7.73717 9.11665 7.73717 9.11555 7.73717 9.11444C7.73604 8.63812 8.09027 8.05061 8.52741 7.80222C8.96456 7.55383 9.31991 7.73805 9.32104 8.21436C9.32104 8.21547 9.32104 8.21658 9.32104 8.21768ZM11.2919 11.3372C11.293 11.8136 10.9388 12.4011 10.5016 12.6495C10.0645 12.8979 9.70911 12.7136 9.70798 12.2373C9.70798 12.2362 9.70798 12.2351 9.70798 12.234C9.70685 11.7577 10.0611 11.1702 10.4982 10.9218C10.9354 10.6734 11.2907 10.8576 11.2919 11.3339C11.2919 11.335 11.2919 11.3361 11.2919 11.3372ZM11.2919 7.1013C11.293 7.57762 10.9388 8.16513 10.5016 8.41352C10.0645 8.66191 9.70911 8.47769 9.70798 8.00138C9.70798 8.00027 9.70798 7.99916 9.70798 7.99806C9.70685 7.52174 10.0611 6.93423 10.4982 6.68584C10.9354 6.43745 11.2907 6.62167 11.2919 7.09798C11.2919 7.09909 11.2919 7.1002 11.2919 7.1013ZM13.2632 10.2214C13.2644 10.6977 12.9101 11.2852 12.473 11.5336C12.0358 11.782 11.6805 11.5978 11.6794 11.1215C11.6794 11.1204 11.6794 11.1193 11.6794 11.1182C11.6782 10.6419 12.0325 10.0543 12.4696 9.80595C12.9067 9.55756 13.2621 9.74178 13.2632 10.2181C13.2632 10.2192 13.2632 10.2203 13.2632 10.2214ZM13.2632 5.98547C13.2644 6.46179 12.9101 7.0493 12.473 7.29769C12.0358 7.54608 11.6805 7.36187 11.6794 6.88555C11.6794 6.88444 11.6794 6.88334 11.6794 6.88223C11.6782 6.40591 12.0325 5.8184 12.4696 5.57001C12.9067 5.32162 13.2621 5.50584 13.2632 5.98215C13.2632 5.98326 13.2632 5.98437 13.2632 5.98547ZM6.86683 8.30232C6.79237 8.12253 6.69084 7.94772 6.57013 7.79392L0.379046 4.32695C0.149475 4.38503 0 4.60632 0 4.95152V10.3951C0 10.9671 0.409505 11.6625 0.914336 11.9485L6.08561 14.8772C6.41615 15.0642 6.70607 15.0299 6.86626 14.823L6.86683 8.30232ZM2.32109 11.1215C2.31997 11.5978 1.96517 11.782 1.52747 11.5336C1.08976 11.2852 0.736094 10.6977 0.737222 10.2214C0.737222 10.2203 0.737222 10.2192 0.737222 10.2181C0.738351 9.74178 1.09314 9.55756 1.53085 9.80595C1.96856 10.0543 2.32222 10.6419 2.32109 11.1182C2.32109 11.1193 2.32109 11.1204 2.32109 11.1215ZM2.32109 6.88555C2.31997 7.36187 1.96517 7.54608 1.52747 7.29769C1.08976 7.0493 0.736094 6.46179 0.737222 5.98547C0.737222 5.98437 0.737222 5.98326 0.737222 5.98215C0.738351 5.50584 1.09314 5.32162 1.53085 5.57001C1.96856 5.8184 2.32222 6.40591 2.32109 6.88223C2.32109 6.88334 2.32109 6.88444 2.32109 6.88555ZM6.26329 13.3537C6.26216 13.83 5.90737 14.0142 5.46966 13.7658C5.03195 13.5175 4.67829 12.9299 4.67942 12.4536C4.67942 12.4525 4.67942 12.4514 4.67942 12.4503C4.68054 11.974 5.03534 11.7898 5.47304 12.0382C5.91075 12.2866 6.26442 12.8741 6.26329 13.3504C6.26329 13.3515 6.26329 13.3526 6.26329 13.3537ZM6.26329 9.11776C6.26216 9.59407 5.90737 9.77829 5.46966 9.5299C5.03195 9.28151 4.67829 8.694 4.67942 8.21768C4.67942 8.21658 4.67942 8.21547 4.67942 8.21436C4.68054 7.73805 5.03534 7.55383 5.47304 7.80222C5.91075 8.05061 6.26442 8.63812 6.26329 9.11444C6.26329 9.11555 6.26329 9.11665 6.26329 9.11776Z" fill="#E3E3E3"/>
</svg>
