<svg width="15" height="13" viewBox="0 0 15 13" fill="none" xmlns="http://www.w3.org/2000/svg">
<path d="M1 12H13.9999" stroke="#E3E3E3" stroke-linecap="round" stroke-linejoin="round"/>
<path d="M2.94995 12V3.8875C2.94995 3.85103 2.96365 3.81606 2.98803 3.79027C3.01241 3.76449 3.04547 3.75 3.07995 3.75H4.76994C4.80441 3.75 4.83748 3.76449 4.86186 3.79027C4.88624 3.81606 4.89993 3.85103 4.89993 3.8875V12" stroke="#E3E3E3" stroke-linecap="round" stroke-linejoin="round"/>
<path d="M6.8501 12V1.18334C6.8501 1.08208 6.9083 1 6.9801 1H8.67008C8.74188 1 8.80008 1.08208 8.80008 1.18334V12" stroke="#E3E3E3" stroke-linecap="round" stroke-linejoin="round"/>
<path d="M10.75 12V5.91562C10.75 5.85867 10.8082 5.8125 10.88 5.8125H12.57C12.6418 5.8125 12.7 5.85867 12.7 5.91562V12" stroke="#E3E3E3" stroke-linecap="round" stroke-linejoin="round"/>
</svg>
