<svg width="15" height="16" viewBox="0 0 15 16" fill="none" xmlns="http://www.w3.org/2000/svg">
<path d="M7.49988 7.375C8.32868 7.375 9.12354 7.70424 9.70959 8.29029C10.2956 8.87634 10.6249 9.6712 10.6249 10.5V14.25H4.37488V10.5C4.37488 9.6712 4.70412 8.87634 5.29017 8.29029C5.87622 7.70424 6.67108 7.375 7.49988 7.375ZM3.30488 9.25375C3.20541 9.58924 3.14666 9.93548 3.12988 10.285L3.12488 10.5V14.25H1.24988V11.4375C1.24975 10.8985 1.44865 10.3784 1.8084 9.97701C2.16815 9.57561 2.66344 9.32118 3.19925 9.2625L3.30488 9.25375ZM11.6949 9.25375C12.2511 9.28765 12.7734 9.53247 13.1553 9.93827C13.5371 10.3441 13.7498 10.8803 13.7499 11.4375V14.25H11.8749V10.5C11.8749 10.0669 11.8124 9.64875 11.6949 9.25375ZM3.43738 5.5C3.85178 5.5 4.24921 5.66462 4.54223 5.95765C4.83526 6.25067 4.99988 6.6481 4.99988 7.0625C4.99988 7.4769 4.83526 7.87433 4.54223 8.16736C4.24921 8.46038 3.85178 8.625 3.43738 8.625C3.02298 8.625 2.62555 8.46038 2.33252 8.16736C2.0395 7.87433 1.87488 7.4769 1.87488 7.0625C1.87488 6.6481 2.0395 6.25067 2.33252 5.95765C2.62555 5.66462 3.02298 5.5 3.43738 5.5ZM11.5624 5.5C11.9768 5.5 12.3742 5.66462 12.6672 5.95765C12.9603 6.25067 13.1249 6.6481 13.1249 7.0625C13.1249 7.4769 12.9603 7.87433 12.6672 8.16736C12.3742 8.46038 11.9768 8.625 11.5624 8.625C11.148 8.625 10.7506 8.46038 10.4575 8.16736C10.1645 7.87433 9.99988 7.4769 9.99988 7.0625C9.99988 6.6481 10.1645 6.25067 10.4575 5.95765C10.7506 5.66462 11.148 5.5 11.5624 5.5ZM7.49988 1.75C8.16292 1.75 8.7988 2.01339 9.26765 2.48223C9.73649 2.95107 9.99988 3.58696 9.99988 4.25C9.99988 4.91304 9.73649 5.54893 9.26765 6.01777C8.7988 6.48661 8.16292 6.75 7.49988 6.75C6.83684 6.75 6.20095 6.48661 5.73211 6.01777C5.26327 5.54893 4.99988 4.91304 4.99988 4.25C4.99988 3.58696 5.26327 2.95107 5.73211 2.48223C6.20095 2.01339 6.83684 1.75 7.49988 1.75Z" fill="#E3E3E3"/>
</svg>
