<svg width="45" height="45" viewBox="0 0 45 45" fill="none" xmlns="http://www.w3.org/2000/svg">
<path fill-rule="evenodd" clip-rule="evenodd" d="M40.1683 1.56966L20.8997 26.1793L14.5903 18.9647C14.3892 18.7321 14.1442 18.5416 13.8692 18.4041C13.5943 18.2665 13.2948 18.1847 12.9881 18.1632C12.6815 18.1418 12.3736 18.1811 12.0821 18.2791C11.7907 18.377 11.5215 18.5315 11.29 18.7338C11.0585 18.9361 10.8693 19.1822 10.7331 19.4579C10.597 19.7335 10.5167 20.0334 10.4969 20.3402C10.477 20.647 10.518 20.9547 10.6174 21.2456C10.7169 21.5365 10.8728 21.8049 11.0763 22.0353L18.3167 30.314C18.6558 30.7016 19.0762 31.0096 19.5481 31.216C20.0199 31.4224 20.5314 31.5221 21.0462 31.5081C21.561 31.494 22.0664 31.3666 22.5263 31.1347C22.9861 30.9029 23.3892 30.5725 23.7067 30.167L43.8433 4.44666C44.0322 4.20536 44.1718 3.92921 44.254 3.63398C44.3361 3.33875 44.3594 3.03023 44.3223 2.72602C44.2853 2.42182 44.1887 2.12789 44.038 1.86102C43.8874 1.59415 43.6856 1.35957 43.4443 1.17066C43.203 0.981754 42.9269 0.842225 42.6317 0.760042C42.3364 0.677858 42.0279 0.654628 41.7237 0.691679C41.4195 0.728729 41.1256 0.825334 40.8587 0.975979C40.5918 1.12662 40.3572 1.32836 40.1683 1.56966ZM39.6667 21.6667C39.0478 21.6667 38.4543 21.9125 38.0168 22.3501C37.5792 22.7877 37.3333 23.3812 37.3333 24V38.1797C37.3333 39.2507 37.2843 39.5097 37.142 39.7757C37.061 39.9329 36.9329 40.061 36.7757 40.142C36.512 40.282 36.2507 40.3333 35.1797 40.3333H6.82033C5.74933 40.3333 5.49033 40.282 5.22433 40.142C5.06696 40.0611 4.93885 39.933 4.858 39.7757C4.718 39.512 4.66667 39.2507 4.66667 38.1797V8.83333C4.66667 8.52391 4.78958 8.22716 5.00838 8.00837C5.22717 7.78958 5.52391 7.66666 5.83333 7.66666L25.6667 7.67599C26.2855 7.67599 26.879 7.43016 27.3166 6.99258C27.7542 6.55499 28 5.9615 28 5.34266C28 4.72382 27.7542 4.13033 27.3166 3.69274C26.879 3.25516 26.2855 3.00933 25.6667 3.00933L5.83333 2.99999C4.28624 2.99999 2.80251 3.61458 1.70854 4.70854C0.614582 5.8025 0 7.28623 0 8.83333V38.1797C0 39.953 0.191333 40.9447 0.744333 41.976C1.267 42.9537 2.04633 43.733 3.024 44.2557C4.05533 44.8087 5.04467 45 6.82033 45H35.1797C36.953 45 37.9447 44.8087 38.976 44.2557C39.956 43.733 40.7353 42.9537 41.258 41.976C41.8087 40.9447 42 39.9553 42 38.1797V24C42 23.3812 41.7542 22.7877 41.3166 22.3501C40.879 21.9125 40.2855 21.6667 39.6667 21.6667Z" fill="white"/>
</svg>
