<svg width="13" height="13" viewBox="0 0 13 13" fill="none" xmlns="http://www.w3.org/2000/svg">
<path d="M6.49988 5.87502C7.32868 5.87502 8.12354 6.20426 8.70959 6.79031C9.29564 7.37636 9.62488 8.17121 9.62488 9.00002V12.75H3.37488V9.00002C3.37488 8.17121 3.70412 7.37636 4.29017 6.79031C4.87622 6.20426 5.67108 5.87502 6.49988 5.87502ZM2.30488 7.75377C2.20541 8.08926 2.14666 8.43549 2.12988 8.78502L2.12488 9.00002V12.75H0.249878V9.93752C0.249755 9.3985 0.448646 8.87841 0.8084 8.47702C1.16815 8.07563 1.66344 7.82119 2.19925 7.76252L2.30488 7.75377ZM10.6949 7.75377C11.2511 7.78767 11.7734 8.03249 12.1553 8.43829C12.5371 8.84409 12.7498 9.38029 12.7499 9.93752V12.75H10.8749V9.00002C10.8749 8.56689 10.8124 8.14877 10.6949 7.75377ZM2.43738 4.00002C2.85178 4.00002 3.24921 4.16464 3.54223 4.45766C3.83526 4.75069 3.99988 5.14812 3.99988 5.56252C3.99988 5.97692 3.83526 6.37434 3.54223 6.66737C3.24921 6.9604 2.85178 7.12502 2.43738 7.12502C2.02298 7.12502 1.62555 6.9604 1.33252 6.66737C1.0395 6.37434 0.874878 5.97692 0.874878 5.56252C0.874878 5.14812 1.0395 4.75069 1.33252 4.45766C1.62555 4.16464 2.02298 4.00002 2.43738 4.00002ZM10.5624 4.00002C10.9768 4.00002 11.3742 4.16464 11.6672 4.45766C11.9603 4.75069 12.1249 5.14812 12.1249 5.56252C12.1249 5.97692 11.9603 6.37434 11.6672 6.66737C11.3742 6.9604 10.9768 7.12502 10.5624 7.12502C10.148 7.12502 9.75055 6.9604 9.45752 6.66737C9.1645 6.37434 8.99988 5.97692 8.99988 5.56252C8.99988 5.14812 9.1645 4.75069 9.45752 4.45766C9.75055 4.16464 10.148 4.00002 10.5624 4.00002ZM6.49988 0.250015C7.16292 0.250015 7.7988 0.513407 8.26765 0.982248C8.73649 1.45109 8.99988 2.08697 8.99988 2.75002C8.99988 3.41306 8.73649 4.04894 8.26765 4.51778C7.7988 4.98662 7.16292 5.25002 6.49988 5.25002C5.83684 5.25002 5.20095 4.98662 4.73211 4.51778C4.26327 4.04894 3.99988 3.41306 3.99988 2.75002C3.99988 2.08697 4.26327 1.45109 4.73211 0.982248C5.20095 0.513407 5.83684 0.250015 6.49988 0.250015Z" fill="#E3E3E3"/>
</svg>
